{"title":"Puppet Master Collection 1-8 (PSP -Ipod touch - Zune)","uid":5676522,"size":2555833039,"categoryP":"video","categoryS":"handheld","magnet":"?xt=urn:btih:75dc614718b1fe611767e4527cee61b801f4d2d5&amp;dn=Puppet+Master+Collection+1-8+%28PSP+-Ipod+touch+-+Zune%29&amp;tr=udp%3A%2F%2Ftracker.openbittorrent.com%3A80&amp;tr=udp%3A%2F%2Fopen.demonii.com%3A1337&amp;tr=udp%3A%2F%2Ftracker.coppersurfer.tk%3A6969&amp;tr=udp%3A%2F%2Fexodus.desync.com%3A6969","seeders":0,"leechers":1,"uploader":"on.off.on","files":8,"time":1278552051,"description":"Puppet Master Collection 1-8 &lt;a href=&quot;\nhttp://www.imdb.com/title/tt0098143/&quot; rel=&quot;nofollow&quot; target=&quot;_NEW&quot;&gt;\nhttp://www.imdb.com/title/tt0098143/&lt;/a&gt;\n\nSource  :\n\n1. Puppet_Master__1989__FS.DVDRIP.FFDS\n2. Puppet_Master_2__1992__FS.DVDRIP.XVID.SuperR\n3. Puppet_Master_3__1991__FS.DVDRIP.XVID.SuperR\n4. Puppet Master 4 (1994) FS.DVDRIP.FFDS.SuperR\n5. Puppet Master 5--upload-by-danielek---\n6. Puppet Master 6 (1998) FS.DVDRIP.DIVX.SuperR\n7. Puppet Master 7 (1999) FS.DVDRIP.XVID.SuperR\n8. Puppet Master The Legacy (2004) FS.DVDRIP-DivX-SuperR\n\n\n\nInfo puppet master 1:\n\nID                               : 1\nFormat                           : AVC\nFormat/Info                      : Advanced Video Codec\nFormat profile                   : &lt;a class=&quot;__cf_email__&quot; href=&quot;/cdn-cgi/l/email-protection&quot; data-cfemail=&quot;bdffdcced8d1d4d3d8fdf18f938c&quot;&gt;[email&amp;#160;protected]&lt;/a&gt;&lt;script cf-hash='f9e31' type=&quot;text/javascript&quot;&gt;\n/* &lt;![CDATA[ */!function(){try{var t=&quot;currentScript&quot;in document?document.currentScript:function(){for(var t=document.getElementsByTagName(&quot;script&quot;),e=t.length;e--;)if(t[e].getAttribute(&quot;cf-hash&quot;))return t[e]}();if(t&amp;&amp;t.previousSibling){var e,r,n,i,c=t.previousSibling,a=c.getAttribute(&quot;data-cfemail&quot;);if(a){for(e=&quot;&quot;,r=parseInt(a.substr(0,2),16),n=2;a.length-n;n+=2)i=parseInt(a.substr(n,2),16)^r,e+=String.fromCharCode(i);e=document.createTextNode(e),c.parentNode.replaceChild(e,c)}}}catch(u){}}();/* ]]&gt; */&lt;/script&gt;\nFormat settings, CABAC           : No\nFormat settings, ReFrames        : 3 frames\nCodec ID                         : avc1\nCodec ID/Info                    : Advanced Video Coding\nDuration                         : 1h 27mn\nBit rate mode                    : Variable\nBit rate                         : 400 Kbps\nWidth                            : 480 pixels\nHeight                           : 368 pixels\nDisplay aspect ratio             : 4:3\nFrame rate mode                  : Variable\nFrame rate                       : 23.976 fps\nMinimum frame rate               : 23.974 fps\nMaximum frame rate               : 23.981 fps\nColor space                      : YUV\nChroma subsampling               : 4:2:0\nBit depth                        : 8 bits\nScan type                        : Progressive\nBits/(Pixel*Frame)               : 0.094\nStream size                      : 251 MiB (75%)\nWriting library                  : x264 core 79\n\nID                               : 2\nFormat                           : AAC\nFormat/Info                      : Advanced Audio Codec\nFormat version                   : Version 4\nFormat profile                   : LC\nFormat settings, SBR             : No\nCodec ID                         : 40\nDuration                         : 1h 27mn\nBit rate mode                    : Variable\nBit rate                         : 128 Kbps\nMaximum bit rate                 : 164 Kbps\nChannel(s)                       : 2 channels\nChannel positions                : Front: L R\nSampling rate                    : 48.0 KHz\nStream size                      : 80.3 MiB (24%)\n\nScreens from puppet master 1 : &lt;a href=&quot;\nhttp://img130.imageshack.us/img130/8282/puppetmaster1ooom4vthum.jpg&quot; rel=&quot;nofollow&quot; target=&quot;_NEW&quot;&gt;\nhttp://img130.imageshack.us/img130/8282/puppetmaster1ooom4vthum.jpg&lt;/a&gt;\n\n\nNOTE : THIS COLLECTION WAS VERY HARD TO FIND ALMOST IMPOSSIBLE.. IT'S \nDVD RE-RIPS.. PLEASE HELP ME SHARE AS LONG AS POSSIBLE =)\n\n\n\nPLEASE LET THE TORRENT SEED AND SHARE IT WITH ALL YOU KNOW!\n\nLet me know what I can do to be your trusted source of Handheld videos. &lt;a href=&quot;\nhttp://thepiratebay.se/user/on.off.on/&quot; rel=&quot;nofollow&quot; target=&quot;_NEW&quot;&gt;\nhttp://thepiratebay.se/user/on.off.on/&lt;/a&gt; -OOO","torrent":{"xt":"urn:btih:75dc614718b1fe611767e4527cee61b801f4d2d5","amp;dn":"Puppet+Master+Collection+1-8+%28PSP+-Ipod+touch+-+Zune%29","amp;tr":["udp%3A%2F%2Ftracker.openbittorrent.com%3A80","udp%3A%2F%2Fopen.demonii.com%3A1337","udp%3A%2F%2Ftracker.coppersurfer.tk%3A6969","udp%3A%2F%2Fexodus.desync.com%3A6969"],"infoHash":"75dc614718b1fe611767e4527cee61b801f4d2d5","infoHashBuffer":{"type":"Buffer","data":[117,220,97,71,24,177,254,97,23,103,228,82,124,238,97,184,1,244,210,213]},"announce":[],"urlList":[]}}